<svg width="343" height="72" viewBox="0 0 343 72" fill="none" xmlns="http://www.w3.org/2000/svg">
<path d="M156.433 16.8237H165.006V42.4498H180.438V49.8327H156.433V16.8237Z" fill="#F78008"/>
<path fill-rule="evenodd" clip-rule="evenodd" d="M193.513 25.1696C200.961 25.1696 206.212 30.68 206.212 37.9024C206.212 45.1248 200.961 50.5817 193.513 50.5817C186.065 50.5817 180.867 45.1248 180.867 37.9024C180.867 30.68 186.065 25.1696 193.513 25.1696ZM193.513 44.5363C197.157 44.5363 198.335 40.9519 198.335 37.9024C198.335 34.853 197.157 31.215 193.513 31.215C189.869 31.215 188.744 34.853 188.744 37.9024C188.744 40.9519 189.869 44.5363 193.513 44.5363Z" fill="#F78008"/>
<path fill-rule="evenodd" clip-rule="evenodd" d="M219.233 58.2855C230.485 58.2855 231.235 50.8492 231.235 46.9437H231.289V25.9721H223.734V28.9681H223.627C222.233 26.5071 220.09 25.2766 217.197 25.2766C210.392 25.2766 206.641 30.6265 206.641 36.9929C206.641 43.7338 209.909 48.9232 217.197 48.9232C219.715 48.9232 222.126 47.5857 223.573 45.3923H223.68V47.6392C223.68 50.6352 223.305 53.2566 219.554 53.2566C218.322 53.2566 217.357 53.0961 216.661 52.7216C215.911 52.3471 215.482 51.7051 215.321 50.6352H207.444C208.355 57.0551 213.607 58.2855 219.233 58.2855ZM214.464 37.1534C214.464 34.2109 215.589 31.1615 219.072 31.1615C222.609 31.1615 223.787 34.1575 223.787 37.1534C223.787 40.2029 222.341 42.7708 219.018 42.7708C215.75 42.7708 214.464 39.9888 214.464 37.1534Z" fill="#F78008"/>
<path d="M242.113 22.8691H234.236V16.8237H242.113V22.8691Z" fill="#F78008"/>
<path d="M234.236 25.8651H242.113V49.8327H234.236V25.8651Z" fill="#F78008"/>
<path d="M252.776 44.5897C252.026 44.0013 251.49 43.0918 251.49 41.9148H243.935C244.149 48.6557 249.99 50.5281 255.67 50.5281C261.081 50.5281 267.19 48.3882 267.19 41.9683C267.19 39.9888 265.958 36.4579 261.081 35.4949C260.375 35.3394 259.608 35.1979 258.831 35.0545L258.831 35.0544L258.829 35.0541C255.598 34.4579 252.187 33.8285 252.187 32.0175C252.187 30.359 254.276 30.1985 255.562 30.1985C256.527 30.1985 257.438 30.359 258.081 30.787C258.724 31.215 259.099 31.857 259.099 32.8734H266.386C266.118 26.6676 260.599 25.1161 255.348 25.1161C250.633 25.1161 244.363 26.6676 244.363 32.4455C244.363 37.9506 248.859 38.8901 253.236 39.8048L253.238 39.8052C254.007 39.966 254.772 40.1259 255.509 40.3098C255.59 40.3317 255.675 40.3533 255.763 40.3751C255.865 40.4004 255.971 40.4259 256.08 40.4521L256.083 40.4529C257.487 40.7906 259.367 41.2427 259.367 42.8778C259.367 44.8037 257.223 45.4457 255.67 45.4457C254.598 45.4457 253.526 45.1247 252.776 44.5897Z" fill="#F78008"/>
<path d="M278.389 30.9475V41.8613C278.389 43.7338 279.514 44.1618 281.229 44.1618C281.544 44.1618 281.872 44.1361 282.206 44.1099C282.555 44.0826 282.91 44.0548 283.265 44.0548V49.8327C282.678 49.8544 282.092 49.8936 281.509 49.9327C280.654 49.9899 279.807 50.0467 278.978 50.0467C272.28 50.0467 270.566 48.1207 270.566 41.5938V30.894H266.601V25.8116H270.566V18.5892H278.443V25.8651H283.319V30.9475H278.389Z" fill="#F78008"/>
<path d="M284.765 22.8691H292.642V16.8237H284.765V22.8691Z" fill="#F78008"/>
<path d="M292.642 25.8651H284.765V49.8327H292.642V25.8651Z" fill="#F78008"/>
<path d="M311.504 34.639C311.45 32.606 309.628 31.1615 307.645 31.1615C303.252 31.1615 302.555 34.9065 302.555 38.2234C302.555 41.3263 303.895 44.5363 307.217 44.5363C309.95 44.5363 311.343 42.9848 311.718 40.4169H319.38C318.684 46.8368 313.7 50.5282 307.324 50.5282C300.09 50.5282 294.732 45.6063 294.732 38.2234C294.732 30.573 299.608 25.1696 307.324 25.1696C313.272 25.1696 318.63 28.3261 319.166 34.639H311.504Z" fill="#F78008"/>
<path d="M328.382 44.5897C327.632 44.0013 327.096 43.0918 327.096 41.9148H319.541C319.755 48.6557 325.596 50.5281 331.276 50.5281C336.688 50.5281 342.796 48.3882 342.796 41.9683C342.796 39.9888 341.564 36.4579 336.688 35.4949C335.981 35.3392 335.213 35.1976 334.435 35.0541C331.204 34.4579 327.793 33.8285 327.793 32.0175C327.793 30.359 329.883 30.1985 331.169 30.1985C332.133 30.1985 333.044 30.359 333.687 30.787C334.33 31.215 334.705 31.857 334.705 32.8734H341.992C341.725 26.6676 336.205 25.1161 330.954 25.1161C326.239 25.1161 319.97 26.6676 319.97 32.4455C319.97 37.9506 324.465 38.8901 328.842 39.8048C329.612 39.9657 330.378 40.1258 331.115 40.3098C331.292 40.3573 331.485 40.4039 331.689 40.4529C333.093 40.7906 334.973 41.2427 334.973 42.8778C334.973 44.8037 332.83 45.4457 331.276 45.4457C330.204 45.4457 329.132 45.1247 328.382 44.5897Z" fill="#F78008"/>
<path d="M36.462 16.8724H28.2664C26.2593 16.8724 24.4752 18.0974 23.9177 19.935L18.3982 38.1995H18.2867L12.823 19.935C12.2655 18.0974 10.4814 16.8724 8.47434 16.8724H0L11.5965 49.1694H24.754L36.462 16.8724Z" fill="#2B337F"/>
<path d="M38.6363 49.1694V21.0487C38.6363 18.71 40.6434 16.8724 43.0965 16.8724H50.0655V44.993C50.0655 47.3318 48.0584 49.1694 45.5496 49.1694H38.6363Z" fill="#2B337F"/>
<path fill-rule="evenodd" clip-rule="evenodd" d="M88.423 16.8724H77.4956V20.8817H77.3841C75.377 17.5963 72.2549 15.9257 68.0735 15.9257C58.2053 15.9257 52.7416 23.1647 52.7416 31.7401C52.7416 40.8167 57.5363 47.7773 68.0735 47.7773C71.7531 47.7773 75.2655 46.051 77.3283 43.0441H77.4398V46.1067C77.4398 50.0603 76.9381 53.6241 71.4744 53.6241C69.6903 53.6241 68.2965 53.4571 67.2929 52.9559C66.2336 52.4548 65.6204 51.6195 65.3416 50.1717H53.9124C55.2505 58.8028 62.8885 60.4733 71.0283 60.4733C87.3637 60.4733 88.423 50.5058 88.423 45.2158V16.8724ZM70.7496 24.0557C75.8788 24.0557 77.6071 28.065 77.6071 32.1856C77.6071 36.1949 75.5443 39.703 70.6938 39.703C66.0106 39.703 64.1151 35.9165 64.1151 32.1299C64.1151 28.1764 65.7319 24.0557 70.7496 24.0557Z" fill="#2B337F"/>
<path d="M96.0611 6.90487C97.0646 5.17864 98.9045 4.06497 100.912 4.06497H109.497L105.595 10.5244C104.758 11.9165 103.197 12.8074 101.525 12.8074H92.7717L96.0611 6.90487Z" fill="#2B337F"/>
<path d="M92.7717 49.1694V21.0487C92.7717 18.71 94.7788 16.8724 97.2876 16.8724H104.201V44.993C104.201 47.3318 102.194 49.1694 99.685 49.1694H92.7717Z" fill="#2B337F"/>
<path fill-rule="evenodd" clip-rule="evenodd" d="M142.503 49.1694C141.165 46.6079 141.165 43.6009 141.165 40.8724H141.22V26.7842C141.22 17.652 133.248 15.9815 124.996 15.9815C121.038 15.9815 116.968 16.594 113.902 18.2088C110.78 19.8794 108.661 22.6079 108.438 26.8399H119.087C119.589 24.0557 121.596 22.7749 124.773 22.7749C127.115 22.7749 130.293 23.6659 130.293 26.116C130.293 28.1206 129.234 28.7332 127.282 29.123C125.833 29.3983 124.233 29.5951 122.588 29.7977C115.248 30.7015 106.989 31.7183 106.989 40.3155C106.989 46.942 112.229 50.0603 118.864 50.0603C123.045 50.0603 127.394 48.9467 130.349 46.1067C130.46 47.1647 130.627 48.1671 131.018 49.1694H142.503ZM125.797 35.2246C127.488 34.9291 129.122 34.6435 130.181 34.0232C130.46 40.7053 128.62 43.5452 123.212 43.5452C120.704 43.5452 118.473 42.4872 118.473 39.8701C118.473 37.3086 120.592 36.3062 123.157 35.7494C124.002 35.5383 124.908 35.38 125.797 35.2246Z" fill="#2B337F"/>
<path fill-rule="evenodd" clip-rule="evenodd" d="M50.5673 9.41066C50.5673 9.02087 50.4 8.63107 50.1213 8.35267C50.177 8.18561 50.2328 7.9072 50.177 7.57308C50.177 7.29467 50.1213 7.07193 50.0097 6.8492C50.1213 6.62647 50.177 6.34802 50.177 5.95823C50.177 5.45708 49.954 5.01162 49.4522 4.67749C49.062 3.50811 48.2814 3.00697 47.5567 2.5615L47.4451 2.50579C45.2151 1.16938 44.2673 0 44.2673 0C44.2673 0 43.3195 1.16938 41.0894 2.50579L40.9779 2.5615C40.1974 3.00697 39.4726 3.50811 39.0823 4.67749C38.5805 5.01162 38.3575 5.45708 38.3575 5.95823C38.3575 6.34802 38.4133 6.62647 38.5248 6.8492C38.4133 7.07193 38.3575 7.29467 38.3575 7.57308C38.3575 7.9072 38.4133 8.12993 38.5248 8.35267C38.246 8.68679 38.0788 9.02087 38.0788 9.41066C38.0788 10.2459 38.6363 10.58 38.9151 10.6914V11.5267C39.4726 11.2482 40.5876 10.7471 42.3159 10.5244C42.5947 10.5244 42.8735 10.7471 42.9292 11.0255C42.9292 11.304 42.7062 11.5824 42.4274 11.638C40.3089 11.9165 39.1381 12.696 39.1381 12.696L38.9151 12.8631V14.5336L39.1938 14.3666C39.1938 14.3109 40.9221 13.0858 44.323 13.0858C47.6682 13.0858 49.4522 14.3666 49.4522 14.3666L49.731 14.5336V10.6914C50.0097 10.58 50.5673 10.2459 50.5673 9.41066ZM47.2221 8.18561C47.8354 8.18561 49.7867 8.63107 49.7867 9.41066C49.7867 9.64364 49.7054 9.79536 49.6373 9.92251C49.6077 9.97776 49.5806 10.0283 49.5637 10.0789C48.7832 9.57772 47.3336 8.96519 44.8805 8.90952H43.9885C41.4797 8.96519 40.0859 9.57772 39.3053 10.0789C39.1381 10.0232 38.9708 9.85613 38.9708 9.52205C38.9708 8.74246 40.9221 8.29699 41.5354 8.29699H41.7027V7.46173H41.5354C41.4797 7.46173 40.2531 7.5174 39.3053 8.01855C39.2496 7.96287 39.2496 7.85152 39.2496 7.68446C39.2496 6.79349 40.9221 6.51508 41.5354 6.45941H41.7027L41.6469 5.62414H41.4797C41.3682 5.62414 40.0859 5.73549 39.2496 6.29235V6.01394C39.2496 5.23435 40.6434 4.84455 41.4239 4.78888C41.4797 4.78888 42.3717 4.73317 42.8735 4.56611V6.96055C42.8735 7.239 43.0407 7.46173 43.2637 7.57308H45.4938C45.7168 7.46173 45.8841 7.239 45.8841 6.96055V4.45476C46.4416 4.62182 47.2779 4.67749 47.3336 4.67749C48.0584 4.78888 49.508 5.12296 49.508 5.90255V6.18096C48.6159 5.62414 47.3336 5.51276 47.2779 5.51276H47.1106L47.0549 6.34802H47.2221C47.8354 6.40369 49.508 6.73781 49.508 7.57308C49.508 7.67901 49.4856 7.76252 49.4692 7.82369C49.4597 7.859 49.4522 7.88684 49.4522 7.9072C48.4487 7.46173 47.2221 7.35034 47.2221 7.35034H47.0549V8.18561H47.2221Z" fill="#2B337F"/>
<path fill-rule="evenodd" clip-rule="evenodd" d="M142.057 16.4826H142.67L142.001 15.3689C142.447 15.3132 142.726 15.1462 142.726 14.7007C142.726 14.0882 142.335 13.9211 141.666 13.9211H140.719V16.4826H141.332V15.4246H141.499L142.057 16.4826ZM141.611 14.3109C141.834 14.3109 142.112 14.3666 142.112 14.5893C142.112 14.8677 141.945 14.9234 141.722 14.9234H141.276V14.3109H141.611Z" fill="#2B337F"/>
<path fill-rule="evenodd" clip-rule="evenodd" d="M141.611 17.5406C142.893 17.5406 144.064 16.7053 144.064 15.2019C144.064 13.6984 142.893 12.8074 141.611 12.8631C140.328 12.8631 139.158 13.7541 139.158 15.2019C139.158 16.6497 140.328 17.5406 141.611 17.5406ZM141.611 13.42C142.503 13.42 143.283 14.1439 143.283 15.2019C143.283 16.2042 142.503 16.9281 141.611 16.9837C140.663 16.9837 139.938 16.2599 139.938 15.2019C139.938 14.1439 140.719 13.42 141.611 13.42Z" fill="#2B337F"/>
<path fill-rule="evenodd" clip-rule="evenodd" d="M92.8275 53.4571H101.469C104.87 53.4571 108.048 55.0163 108.048 59.304C108.048 63.8144 105.483 65.5406 101.469 65.5406H97.5664V71.6102H92.8275V53.4571ZM97.5664 61.9211H100.744C102.194 61.9211 103.309 61.3086 103.309 59.638C103.309 57.9118 102.194 57.2436 100.744 57.2436H97.5664V61.9211Z" fill="#2B337F"/>
<path d="M108.996 53.4571H113.344V71.6102H108.996V53.4571Z" fill="#2B337F"/>
<path d="M124.049 71.6102H128.23V58.4129H123.881V65.4849C123.881 67.8236 122.488 68.4361 121.54 68.4361C120.202 68.4361 119.421 67.8793 119.421 66.0974V58.4129H115.073V66.3758C115.073 69.8283 116.188 72 119.979 72C121.484 72 123.157 71.1647 123.993 69.8283H124.049V71.6102Z" fill="#2B337F"/>
<path d="M133.248 67.2668C133.248 67.935 133.527 68.4362 133.973 68.7703C134.363 69.0487 134.976 69.2158 135.589 69.2158C136.426 69.2158 137.652 68.8817 137.652 67.8236C137.652 66.8761 136.456 66.6253 135.666 66.4595C135.621 66.4499 135.576 66.4406 135.534 66.4315C135.143 66.3359 134.738 66.2517 134.332 66.1672L134.33 66.1667C131.897 65.6605 129.401 65.1411 129.401 62.0882C129.401 58.9141 132.858 58.0232 135.422 58.0232C138.321 58.0232 141.332 58.8585 141.499 62.3109H137.485C137.485 61.754 137.262 61.42 136.928 61.1415C136.593 60.8631 136.091 60.8074 135.534 60.8074C134.809 60.8074 133.694 60.8631 133.694 61.8098C133.694 62.8447 135.763 63.204 137.616 63.5257L137.618 63.5261C137.957 63.585 138.289 63.6427 138.6 63.703C141.276 64.2599 141.945 66.1531 141.945 67.2668C141.945 70.8306 138.6 72 135.589 72C132.467 72 129.234 70.942 129.122 67.2668H133.248Z" fill="#2B337F"/>
</svg>
