<svg xmlns="http://www.w3.org/2000/svg" fill="none" viewBox="0 0 1434.624 391.80555555555554" style="max-height: 500px" width="1434.624" height="391.80555555555554">
<path fill="#F78008" d="M916 216H939.571V286.647H982V307H916V216Z"/>
<path fill="#F78008" d="M1016.93 239C1037.5 239 1052 254.179 1052 274.074C1052 293.968 1037.5 309 1016.93 309C996.356 309 982 293.968 982 274.074C982 254.179 996.356 239 1016.93 239ZM1016.93 292.347C1026.99 292.347 1030.24 282.474 1030.24 274.074C1030.24 265.674 1026.99 255.653 1016.93 255.653C1006.86 255.653 1003.76 265.674 1003.76 274.074C1003.76 282.474 1006.86 292.347 1016.93 292.347Z" clip-rule="evenodd" fill-rule="evenodd"/>
<path fill="#F78008" d="M1087.74 331C1118.78 331 1120.85 310.274 1120.85 299.389H1121V240.938H1100.16V249.289H1099.86C1096.02 242.43 1090.1 239 1082.12 239C1063.35 239 1053 253.911 1053 271.655C1053 290.443 1062.02 304.906 1082.12 304.906C1089.07 304.906 1095.72 301.178 1099.71 295.065H1100.01V301.327C1100.01 309.678 1098.97 316.984 1088.62 316.984C1085.23 316.984 1082.56 316.536 1080.64 315.493C1078.57 314.449 1077.39 312.66 1076.95 309.678H1055.22C1057.73 327.571 1072.22 331 1087.74 331ZM1074.58 272.102C1074.58 263.901 1077.69 255.402 1087.3 255.402C1097.05 255.402 1100.3 263.752 1100.3 272.102C1100.3 280.601 1096.31 287.759 1087.15 287.759C1078.13 287.759 1074.58 280.005 1074.58 272.102Z" clip-rule="evenodd" fill-rule="evenodd"/>
<path fill="#F78008" d="M1129 244H1149V305H1129V244Z"/>
<path fill="#F78008" d="M1129 216H1149V236H1129V216Z"/>
<path fill="#F78008" d="M1268 216H1288V236H1268V216Z"/>
<path fill="#F78008" d="M1179.71 292.408C1177.62 290.764 1176.12 288.223 1176.12 284.935H1155C1155.6 303.769 1171.92 309 1187.8 309C1202.92 309 1220 303.021 1220 285.084C1220 279.554 1216.56 269.688 1202.92 266.998C1200.95 266.563 1198.81 266.168 1196.64 265.767L1196.63 265.766C1187.6 264.101 1178.07 262.342 1178.07 257.282C1178.07 252.648 1183.9 252.2 1187.5 252.2C1190.2 252.2 1192.74 252.648 1194.54 253.844C1196.34 255.04 1197.38 256.834 1197.38 259.674H1217.75C1217 242.335 1201.58 238 1186.9 238C1173.72 238 1156.2 242.335 1156.2 258.478C1156.2 273.859 1168.76 276.484 1181 279.04L1181 279.041C1183.15 279.49 1185.29 279.937 1187.35 280.451C1187.58 280.512 1187.81 280.572 1188.06 280.633C1188.35 280.704 1188.64 280.775 1188.95 280.848L1188.95 280.85C1192.88 281.794 1198.13 283.057 1198.13 287.625C1198.13 293.006 1192.14 294.8 1187.8 294.8C1184.8 294.8 1181.81 293.903 1179.71 292.408Z"/>
<path fill="#F78008" d="M1250.14 253.964V284.842C1250.14 290.139 1253.3 291.35 1258.12 291.35C1259.01 291.35 1259.93 291.278 1260.87 291.204C1261.85 291.126 1262.85 291.048 1263.85 291.048V307.395C1262.2 307.456 1260.55 307.567 1258.91 307.677C1256.51 307.839 1254.13 308 1251.8 308C1232.97 308 1228.15 302.551 1228.15 284.085V253.813H1217V239.434H1228.15V219H1250.29V239.585H1264V253.964H1250.14Z"/>
<path fill="#F78008" d="M1288 244H1268V305H1288V244Z"/>
<path fill="#F78008" d="M1341.95 265.139C1341.8 259.527 1336.7 255.54 1331.15 255.54C1318.85 255.54 1316.9 265.878 1316.9 275.034C1316.9 283.599 1320.65 292.46 1329.95 292.46C1337.6 292.46 1341.5 288.177 1342.55 281.089H1364C1362.05 298.81 1348.1 309 1330.25 309C1310 309 1295 295.414 1295 275.034C1295 253.916 1308.65 239 1330.25 239C1346.9 239 1361.9 247.713 1363.4 265.139H1341.95Z"/>
<path fill="#F78008" d="M1387.33 291.642C1385.27 290.021 1383.79 287.516 1383.79 284.274H1363C1363.59 302.842 1379.66 308 1395.3 308C1410.19 308 1427 302.105 1427 284.421C1427 278.968 1423.61 269.242 1410.19 266.589C1408.24 266.161 1406.13 265.771 1403.99 265.375C1395.1 263.733 1385.71 261.999 1385.71 257.011C1385.71 252.442 1391.46 252 1395 252C1397.65 252 1400.16 252.442 1401.93 253.621C1403.7 254.8 1404.73 256.569 1404.73 259.368H1424.79C1424.05 242.274 1408.86 238 1394.41 238C1381.43 238 1364.18 242.274 1364.18 258.19C1364.18 273.354 1376.55 275.942 1388.6 278.462C1390.72 278.905 1392.82 279.346 1394.85 279.853C1395.34 279.983 1395.87 280.112 1396.43 280.247C1400.3 281.177 1405.47 282.422 1405.47 286.926C1405.47 292.232 1399.57 294 1395.3 294C1392.35 294 1389.4 293.116 1387.33 291.642Z"/>
<path fill="#2B337F" d="M228 108H176.752C164.202 108 153.046 115.662 149.559 127.155L115.046 241.389H114.348L80.1833 127.155C76.6972 115.662 65.5411 108 52.9908 108H0L72.5139 310H154.789L228 108Z"/>
<path fill="#2B337F" d="M237 310V134.12C237 119.493 249.468 108 264.707 108H308V283.879C308 298.507 295.532 310 279.947 310H237Z"/>
<path fill="#2B337F" d="M545 110.908H477.013V135.928H476.319C463.831 115.425 444.406 105 418.391 105C356.994 105 323 150.175 323 203.69C323 260.333 352.831 303.77 418.391 303.77C441.284 303.77 463.138 292.997 475.972 274.233H476.666V293.345C476.666 318.018 473.544 340.257 439.55 340.257C428.45 340.257 419.778 339.215 413.534 336.088C406.944 332.96 403.128 327.748 401.394 318.713H330.284C338.61 372.575 386.131 383 436.775 383C538.409 383 545 320.798 545 287.785V110.908ZM435.041 155.735C466.953 155.735 477.706 180.755 477.706 206.47C477.706 231.49 464.872 253.383 434.694 253.383C405.556 253.383 393.763 229.753 393.763 206.123C393.763 181.451 403.822 155.735 435.041 155.735Z" clip-rule="evenodd" fill-rule="evenodd"/>
<path fill="#2B337F" d="M590.454 43.8663C596.694 33.0063 608.135 26 620.617 26H674L649.737 66.6373C644.532 75.3952 634.826 81 624.429 81H570L590.454 43.8663Z"/>
<path fill="#2B337F" d="M570 310V134.12C570 119.493 582.468 108 598.053 108H641V283.879C641 298.507 628.532 310 612.946 310H570Z"/>
<path fill="#2B337F" d="M878 309.458C869.636 293.523 869.636 274.817 869.636 257.843H869.98V170.202C869.98 113.392 820.146 103 768.563 103C743.821 103 718.379 106.81 699.214 116.856C679.698 127.248 666.452 144.222 665.058 170.549H731.625C734.763 153.229 747.309 145.261 767.169 145.261C781.809 145.261 801.675 150.804 801.675 166.045C801.675 178.516 795.055 182.327 782.853 184.752C773.795 186.464 763.793 187.689 753.51 188.949C707.627 194.571 656 200.897 656 254.379C656 295.601 688.756 315 730.231 315C756.367 315 783.553 308.072 802.025 290.405C802.719 296.987 803.762 303.223 806.207 309.458H878ZM773.57 222.709C784.14 220.871 794.355 219.094 800.974 215.235C802.719 256.804 791.217 274.47 757.411 274.47C741.733 274.47 727.787 267.889 727.787 251.608C727.787 235.673 741.033 229.437 757.067 225.974C762.349 224.66 768.013 223.676 773.57 222.709Z" clip-rule="evenodd" fill-rule="evenodd"/>
<path fill="#2B337F" d="M312 58.9235C312 56.4829 310.955 54.0422 309.214 52.299C309.562 51.253 309.911 49.5098 309.562 47.4177C309.562 45.6745 309.214 44.2798 308.517 42.8853C309.214 41.4907 309.562 39.7472 309.562 37.3066C309.562 34.1687 308.17 31.3795 305.035 29.2874C302.598 21.9655 297.723 18.8277 293.197 16.0385L292.5 15.6896C278.572 7.3219 272.652 0 272.652 0C272.652 0 266.732 7.3219 252.803 15.6896L252.107 16.0385C247.232 18.8277 242.705 21.9655 240.268 29.2874C237.133 31.3795 235.741 34.1687 235.741 37.3066C235.741 39.7472 236.089 41.4907 236.786 42.8853C236.089 44.2798 235.741 45.6745 235.741 47.4177C235.741 49.5098 236.089 50.9044 236.786 52.299C235.044 54.3911 234 56.4829 234 58.9235C234 64.1532 237.482 66.2451 239.223 66.9426V72.1727C242.705 70.429 249.669 67.2914 260.464 65.897C262.205 65.897 263.946 67.2914 264.294 69.0345C264.294 70.7783 262.902 72.5215 261.16 72.8696C247.929 74.6134 240.616 79.4941 240.616 79.4941L239.223 80.5404V91L240.964 89.9544C240.964 89.6056 251.759 81.9348 273 81.9348C293.893 81.9348 305.035 89.9544 305.035 89.9544L306.777 91V66.9426C308.517 66.2451 312 64.1532 312 58.9235ZM291.107 51.253C294.937 51.253 307.125 54.0422 307.125 58.9235C307.125 60.3822 306.617 61.3322 306.191 62.1283C306.007 62.4743 305.837 62.7907 305.732 63.1076C300.857 59.9695 291.803 56.1342 276.482 55.7857H270.91C255.241 56.1342 246.536 59.9695 241.66 63.1076C240.616 62.7588 239.571 61.7127 239.571 59.6209C239.571 54.7396 251.759 51.9504 255.589 51.9504H256.634V46.7205H255.589C255.241 46.7205 247.58 47.0691 241.66 50.207C241.313 49.8583 241.313 49.1611 241.313 48.1151C241.313 42.5364 251.759 40.7932 255.589 40.4446H256.634L256.285 35.2147H255.241C254.545 35.2147 246.536 35.9119 241.313 39.3986V37.6554C241.313 32.7741 250.018 30.3334 254.893 29.9849C255.241 29.9849 260.812 29.636 263.946 28.59V43.5825C263.946 45.3259 264.991 46.7205 266.384 47.4177H280.312C281.705 46.7205 282.75 45.3259 282.75 43.5825V27.8928C286.232 28.9388 291.455 29.2874 291.803 29.2874C296.33 29.9849 305.384 32.0767 305.384 36.958V38.7012C299.812 35.2147 291.803 34.5173 291.455 34.5173H290.41L290.062 39.7472H291.107C294.937 40.0958 305.384 42.1878 305.384 47.4177C305.384 48.081 305.244 48.6039 305.142 48.9869C305.082 49.208 305.035 49.3823 305.035 49.5098C298.768 46.7205 291.107 46.0231 291.107 46.0231H290.062V51.253H291.107Z" clip-rule="evenodd" fill-rule="evenodd"/>
<path fill="#2B337F" d="M873.667 104H877.637L873.304 97.0435C876.193 96.6955 878 95.6524 878 92.8696C878 89.0438 875.467 88 871.134 88H865V104H868.971V97.3914H870.052L873.667 104ZM870.778 90.4348C872.222 90.4348 874.023 90.7827 874.023 92.1738C874.023 93.9128 872.941 94.2607 871.497 94.2607H868.608V90.4348H870.778Z" clip-rule="evenodd" fill-rule="evenodd"/>
<path fill="#2B337F" d="M870.5 111C878.601 111 886 105.824 886 96.5079C886 87.1913 878.601 81.6701 870.5 82.0153C862.393 82.0153 855 87.5365 855 96.5079C855 105.479 862.393 111 870.5 111ZM870.5 85.4662C876.136 85.4662 881.065 89.9519 881.065 96.5079C881.065 102.719 876.136 107.205 870.5 107.549C864.51 107.549 859.929 103.064 859.929 96.5079C859.929 89.9519 864.864 85.4662 870.5 85.4662Z" clip-rule="evenodd" fill-rule="evenodd"/>
<path fill="#2B337F" d="M916 106.789H955.743C971.384 106.789 986 114.004 986 133.844C986 154.715 974.203 162.703 955.743 162.703H937.794V190.789H916V106.789ZM937.794 145.954H952.408C959.077 145.954 964.205 143.12 964.205 135.39C964.205 127.402 959.077 124.31 952.408 124.31H937.794V145.954Z" clip-rule="evenodd" fill-rule="evenodd"/>
<path fill="#2B337F" d="M993 108.789H1014V193.789H993V108.789Z"/>
<path fill="#2B337F" d="M1064.98 191.924H1085V128.789H1064.18V162.621C1064.18 173.809 1057.51 176.739 1052.97 176.739C1046.56 176.739 1042.82 174.075 1042.82 165.551V128.789H1022V166.883C1022 183.399 1027.34 193.789 1045.49 193.789C1052.7 193.789 1060.71 189.793 1064.71 183.399H1064.98V191.924Z"/>
<path fill="#2B337F" d="M1108.95 173.099C1108.95 176.303 1110.3 178.705 1112.45 180.307C1114.34 181.641 1117.3 182.442 1120.27 182.442C1124.32 182.442 1130.24 180.841 1130.24 175.768C1130.24 171.227 1124.46 170.024 1120.64 169.229C1120.42 169.183 1120.21 169.139 1120 169.095C1118.11 168.637 1116.15 168.233 1114.19 167.828L1114.18 167.826C1102.42 165.399 1090.35 162.91 1090.35 148.275C1090.35 133.059 1107.06 128.789 1119.46 128.789C1133.48 128.789 1148.04 132.793 1148.84 149.342H1129.44C1129.44 146.673 1128.36 145.072 1126.74 143.737C1125.12 142.402 1122.7 142.135 1120 142.135C1116.5 142.135 1111.11 142.402 1111.11 146.94C1111.11 151.901 1121.11 153.624 1130.07 155.166L1130.08 155.168C1131.72 155.45 1133.32 155.727 1134.83 156.016C1147.77 158.685 1151 167.761 1151 173.099C1151 190.183 1134.83 195.789 1120.27 195.789C1105.17 195.789 1089.54 190.717 1089 173.099H1108.95Z"/>
</svg>